<svg enable-background="new 0 0 64 64" viewBox="0 0 64 64" xmlns="http://www.w3.org/2000/svg"><circle cx="32" cy="32" fill="#4f5d73" r="32"/><g fill="#231f20"><path d="m26 46h12v4h-12z" opacity=".2"/><path d="m40 46h12v4h-12z" opacity=".2"/><path d="m12 46h12v4h-12z" opacity=".2"/><path d="m26 41h12v4h-12z" opacity=".2"/><path d="m40 41h12v4h-12z" opacity=".2"/><path d="m12 41h12v4h-12z" opacity=".2"/><path d="m26 36h12v4h-12z" opacity=".2"/><path d="m40 36h12v4h-12z" opacity=".2"/><path d="m12 36h12v4h-12z" opacity=".2"/><path d="m26 31h12v4h-12z" opacity=".2"/><path d="m40 31h12v4h-12z" opacity=".2"/><path d="m26 26h12v4h-12z" opacity=".2"/><path d="m26 21h12v4h-12z" opacity=".2"/><path d="m26 16h12v4h-12z" opacity=".2"/></g><path d="m26 44h12v4h-12z" fill="#c75c5c"/><path d="m40 44h12v4h-12z" fill="#c75c5c"/><path d="m12 44h12v4h-12z" fill="#c75c5c"/><path d="m26 39h12v4h-12z" fill="#e0995e"/><path d="m40 39h12v4h-12z" fill="#e0995e"/><path d="m12 39h12v4h-12z" fill="#e0995e"/><path d="m26 34h12v4h-12z" fill="#e0995e"/><path d="m40 34h12v4h-12z" fill="#e0995e"/><path d="m12 34h12v4h-12z" fill="#e0995e"/><path d="m26 29h12v4h-12z" fill="#f5cf87"/><path d="m40 29h12v4h-12z" fill="#f5cf87"/><path d="m26 24h12v4h-12z" fill="#f5cf87"/><path d="m26 19h12v4h-12z" fill="#76c2af"/><path d="m26 14h12v4h-12z" fill="#76c2af"/></svg>